#!OML:ASF E:\Steps\Project 1\Capture day 1\Session 2\Subject.ASF
:FULLY-SPECIFIED
:DEGREES
217
root 8.96033 16.3803 9.91581 -152.049 5.22583 -180.746
lowerback -28.0258 -2.15397 -6.11425
upperback -2.15977 -0.187663 -0.190086
thorax 13.243 -0.151576 3.31036
lowerneck 16.442 -3.96558 12.5645
upperneck -19.2541 -4.44413 -11.6497
head -9.32396 -1.61029 -5.62049
rclavicle -6.85807e-015 1.82882e-014
rhumerus -37.6072 -15.9317 -79.74
rradius 31.8924
rwrist 1.18592
rhand -7.24452 -50.3757
rfingers 7.12502
rthumb 18.6356 -79.5031
lclavicle -6.85807e-015 1.82882e-014
lhumerus -31.559 4.67399 81.842
lradius 22.4443
lwrist -5.80092
lhand -20.0912 -13.0978
lfingers 7.12502
lthumb 6.2518 16.7899
rfemur -26.8069 8.42384 16.9794
rtibia 7.96948
rfoot -18.9303 -10.8219
rtoes -24.8721
lfemur -26.8868 -10.1145 -16.6878
ltibia 7.66669
lfoot -7.32722 4.24052
ltoes -46.3485
218
root 8.96203 16.3799 9.91689 -151.978 5.21509 -180.697
lowerback -27.8502 -1.9008 -6.05598
upperback -1.82139 0.0939224 -0.375039
thorax 13.5199 -0.0539136 3.16558
lowerneck 15.1132 -4.02521 13.239
upperneck -19.2293 -4.51145 -11.8695
head -9.10118 -1.68576 -5.80816
rclavicle -7.55382e-015 -1.78906e-014
rhumerus -36.8003 -16.7705 -79.9634
rradius 31.8168
rwrist 1.2038
rhand -7.16967 -50.2746
rfingers 7.12502
rthumb 18.7076 -79.395
lclavicle -7.55382e-015 -1.78906e-014
lhumerus -30.6829 4.25181 81.7887
lradius 22.4318
lwrist -5.79425
lhand -19.5192 -13.055
lfingers 7.12502
lthumb 6.80395 16.8157
rfemur -26.8915 8.52128 17.0158
rtibia 7.99531
rfoot -18.9638 -10.9857
rtoes -25.1319
lfemur -26.9818 -10.098 -16.6086
ltibia 7.70904
lfoot -7.34085 4.27076
ltoes -46.3352
219
root 8.96224 16.3813 9.91881 -151.981 5.21787 -180.67
lowerback -28.0747 -2.08846 -6.04583
upperback -2.13358 -0.123679 -0.182945
thorax 13.293 -0.122714 3.3039
lowerneck 16.5629 -4.04306 12.8771
upperneck -19.5607 -4.52262 -11.9394
head -9.4791 -1.62908 -5.78305
rclavicle 6.85807e-015 -1.07344e-014
rhumerus -37.6636 -16.0344 -79.6671
rradius 31.9025
rwrist 1.09241
rhand -7.04912 -49.9801
rfingers 7.12502
rthumb 18.8236 -79.0893
lclavicle 6.85807e-015 -1.07344e-014
lhumerus -31.4078 4.75947 81.7121
lradius 22.214
lwrist -6.01429
lhand -19.1906 -12.9935
lfingers 7.12502
lthumb 7.12115 16.8667
rfemur -26.9159 8.60687 17.0361
rtibia 8.05118
rfoot -18.9204 -11.0443
rtoes -25.4157
lfemur -26.998 -10.0574 -16.5785
ltibia 7.73082
lfoot -7.37974 4.24107
ltoes -45.9957
220
root 8.96188 16.3826 9.92092 -152.024 5.22898 -180.671
lowerback -27.7924 -2.13362 -6.00746
upperback -2.35734 -0.204322 -0.139134
thorax 12.887 -0.130141 3.30166
lowerneck 16.9126 -4.05144 12.8762
upperneck -19.6538 -4.53015 -12.0536
head -9.58062 -1.61267 -5.82836
rclavicle 3.67752e-015 1.07344e-014
rhumerus -38.1496 -15.8073 -79.5002
rradius 31.9183
rwrist 1.18614
rhand -7.00128 -50.2317
rfingers 7.12502
rthumb 18.8696 -79.3364
lclavicle 3.67752e-015 1.07344e-014
lhumerus -31.7133 4.85917 81.6424
lradius 22.0339
lwrist -6.25087
lhand -19.621 -13.1176
lfingers 7.12502
lthumb 6.70573 16.7562
rfemur -26.9044 8.59931 17.0453
rtibia 8.07017
rfoot -18.8597 -11.0426
rtoes -25.9949
lfemur -26.9525 -10.0051 -16.6038
ltibia 7.72807
lfoot -7.4182 4.17352
ltoes -46.0035
221
root 8.96197 16.3819 9.92175 -152.041 5.24776 -180.689
lowerback -27.6753 -2.05536 -5.98556
upperback -2.21213 -0.130226 -0.205706
thorax 12.9872 -0.110602 3.23772
lowerneck 16.5803 -4.08275 13.0931
upperneck -19.7901 -4.56576 -12.1539
head -9.57958 -1.63565 -5.90396
rclavicle -1.42131e-014 -5.1684e-015
rhumerus -37.896 -15.9145 -79.6223
rradius 31.9466
rwrist 1.19557
rhand -6.9256 -50.9011
rfingers 7.12502
rthumb 18.9424 -79.9987
lclavicle -1.42131e-014 -5.1684e-015
lhumerus -31.7554 4.96761 81.5291
lradius 22.3696
lwrist -6.55641
lhand -19.9713 -13.3971
lfingers 7.12502
lthumb 6.36749 16.4872
rfemur -26.9103 8.52815 17.0443
rtibia 8.05812
rfoot -18.8321 -11.0217
rtoes -26.2175
lfemur -26.9301 -10.0292 -16.6266
ltibia 7.72566
lfoot -7.42233 4.16346
ltoes -46.336
222
root 8.96256 16.3811 9.92388 -152.054 5.25681 -180.744
lowerback -27.5491 -1.85184 -6.00038
upperback -1.87397 0.124507 -0.440624
thorax 13.2928 -0.0260141 3.06713
lowerneck 15.6106 -4.15537 13.7277
upperneck -19.8566 -4.62612 -12.3359
head -9.45187 -1.70432 -6.07591
rclavicle -2.18663e-015 8.34896e-015
rhumerus -37.2382 -16.6118 -79.9511
rradius 31.9423
rwrist 1.26144
rhand -7.0339 -51.1398
rfingers 7.12502
rthumb 18.8382 -80.2476
lclavicle -2.18663e-015 8.34896e-015
lhumerus -31.1495 4.58567 81.3965
lradius 22.5117
lwrist -6.76924
lhand -20.1218 -13.6683
lfingers 7.12502
lthumb 6.22227 16.2203
rfemur -26.954 8.40749 17.006
rtibia 8.12234
rfoot -18.8659 -10.8779
rtoes -25.6816
lfemur -26.9513 -10.0724 -16.6805
ltibia 7.76838
lfoot -7.44628 4.15741
ltoes -46.3895
223
root 8.96338 16.381 9.92713 -152.012 5.25088 -180.737
lowerback -27.6045 -2.07255 -5.98863
upperback -2.19451 -0.153386 -0.253663
thorax 12.9723 -0.120925 3.17462
lowerneck 16.7249 -4.13724 13.4553
upperneck -20.1277 -4.59029 -12.4058
head -9.74468 -1.6378 -6.07258
rclavicle -1.20265e-014 -3.57812e-015
rhumerus -37.9229 -15.8012 -79.7551
rradius 31.9906
rwrist 1.11616
rhand -7.12856 -51.409
rfingers 7.12502
rthumb 18.7472 -80.5256
lclavicle -1.20265e-014 -3.57812e-015
lhumerus -31.3998 4.89949 81.3364
lradius 21.9859
lwrist -6.7229
lhand -20.0719 -13.6577
lfingers 7.12502
lthumb 6.27039 16.2295
rfemur -27.0935 8.17254 17.077
rtibia 8.29232
rfoot -18.9312 -10.6453
rtoes -25.7123
lfemur -27.0454 -10.069 -16.6499
ltibia 7.83567
lfoot -7.48523 4.18285
ltoes -46.5119
224
root 8.96367 16.3832 9.92938 -151.968 5.25875 -180.716
lowerback -27.674 -2.1372 -5.96667
upperback -2.25871 -0.241686 -0.177528
thorax 12.9428 -0.155648 3.21739
lowerneck 17.1878 -4.15035 13.4204
upperneck -20.3647 -4.59923 -12.4995
head -9.91836 -1.61631 -6.11245
rclavicle 1.61016e-014 1.98785e-015
rhumerus -38.058 -15.4854 -79.6926
rradius 31.9894
rwrist 0.992816
rhand -7.06623 -51.6257
rfingers 7.12502
rthumb 18.8071 -80.7365
lclavicle 1.61016e-014 1.98785e-015
lhumerus -31.7334 4.86132 81.3624
lradius 22.2327
lwrist -6.42448
lhand -19.9485 -13.6415
lfingers 7.12502
lthumb 6.3895 16.2421
rfemur -27.1956 7.9916 17.1637
rtibia 8.41879
rfoot -18.959 -10.5498
rtoes -26.3897
lfemur -27.133 -10.0134 -16.6252
ltibia 7.89728
lfoot -7.52032 4.18691
ltoes -46.7271
225
root 8.96372 16.3848 9.93162 -151.942 5.26472 -180.721
lowerback -27.6857 -2.10694 -5.94622
upperback -2.14147 -0.217922 -0.205485
thorax 13.0841 -0.157246 3.18093
lowerneck 17.1116 -4.17123 13.5662
upperneck -20.5682 -4.61695 -12.5968
head -9.98529 -1.62078 -6.18181
rclavicle 2.28602e-015 -3.53837e-014
rhumerus -37.7517 -15.5457 -79.785
rradius 31.8903
rwrist 0.970451
rhand -7.18929 -51.3896
rfingers 7.12502
rthumb 18.6888 -80.5118
lclavicle 2.28602e-015 -3.53837e-014
lhumerus -31.9442 4.49954 81.4317
lradius 22.7829
lwrist -6.05278
lhand -20.1467 -13.4901
lfingers 7.12502
lthumb 6.1982 16.3992
rfemur -27.2703 7.8631 17.2091
rtibia 8.51615
rfoot -18.9702 -10.5417
rtoes -26.8202
lfemur -27.1877 -9.98337 -16.6368
ltibia 7.93317
lfoot -7.54182 4.14704
ltoes -46.596
226
root 8.96423 16.3842 9.93421 -151.907 5.2159 -180.689
lowerback -27.5926 -2.06836 -5.87559
upperback -1.96906 -0.217563 -0.229982
thorax 13.2361 -0.173224 3.10901
lowerneck 16.6393 -4.14892 13.7687
upperneck -20.7111 -4.59426 -12.7047
head -9.95115 -1.616 -6.2674
rclavicle -1.39149e-015 -3.97569e-016
rhumerus -37.2557 -15.7261 -79.9114
rradius 31.7515
rwrist 1.05958
rhand -7.17728 -51.088
rfingers 7.12502
rthumb 18.7003 -80.2091
lclavicle -1.39149e-015 -3.97569e-016
lhumerus -31.9713 3.98884 81.5579
lradius 23.3156
lwrist -5.75564
lhand -20.3955 -13.0667
lfingers 7.12502
lthumb 5.95797 16.8295
rfemur -27.3654 7.73226 17.3031
rtibia 8.63816
rfoot -18.9955 -10.5225
rtoes -26.9191
lfemur -27.2257 -10.0106 -16.5726
ltibia 7.9101
lfoot -7.57699 4.13749
ltoes -46.2766
227
root 8.9649 16.3847 9.93628 -151.896 5.15579 -180.673
lowerback -27.5498 -2.09932 -5.82442
upperback -2.18887 -0.250205 -0.230623
thorax 12.9577 -0.157596 3.06908
lowerneck 17.2421 -4.23423 13.8998
upperneck -20.843 -4.65921 -12.8482
head -10.1302 -1.63044 -6.34361
rclavicle 1.63997e-014 -5.1684e-015
rhumerus -37.8873 -15.5598 -79.8092
rradius 31.8825
rwrist 0.90632
rhand -7.08687 -51.0944
rfingers 7.12502
rthumb 18.7873 -80.2071
lclavicle 1.63997e-014 -5.1684e-015
lhumerus -31.8448 3.2449 81.6381
lradius 22.8691
lwrist -5.44405
lhand -20.2351 -13.0459
lfingers 7.12502
lthumb 6.11288 16.8459
rfemur -27.436 7.77122 17.3098
rtibia 8.75583
rfoot -19.0738 -10.663
rtoes -26.9786
lfemur -27.2621 -9.99249 -16.5397
ltibia 7.92295
lfoot -7.61445 4.08265
ltoes -45.9884
228
root 8.96606 16.3867 9.93857 -151.911 5.13887 -180.692
lowerback -27.4655 -2.12504 -5.84479
upperback -2.25418 -0.278467 -0.226773
thorax 12.839 -0.163444 3.07494
lowerneck 17.5131 -4.27281 14.0048
upperneck -21.0017 -4.68832 -12.9723
head -10.2495 -1.63082 -6.4143
rclavicle 5.46658e-015 -2.82274e-014
rhumerus -38.1084 -15.4626 -79.7636
rradius 31.9267
rwrist 0.825943
rhand -7.14586 -51.2023
rfingers 7.12502
rthumb 18.7305 -80.3205
lclavicle 5.46658e-015 -2.82274e-014
lhumerus -32.1502 3.13149 81.5669
lradius 23.0953
lwrist -5.62527
lhand -19.8693 -13.4873
lfingers 7.12502
lthumb 6.46602 16.394
rfemur -27.5204 7.91366 17.2307
rtibia 8.92284
rfoot -19.1972 -10.8344
rtoes -26.6751
lfemur -27.2786 -9.91295 -16.578
ltibia 7.96149
lfoot -7.5681 3.95911
ltoes -45.9741
